<?xml version="1.0" encoding="utf-8"?>
<!-- Generator: Adobe Illustrator 16.0.0, SVG Export Plug-In . SVG Version: 6.00 Build 0)  -->
<!DOCTYPE svg PUBLIC "-//W3C//DTD SVG 1.1//EN" "http://www.w3.org/Graphics/SVG/1.1/DTD/svg11.dtd">
<svg version="1.1" id="Layer_1" xmlns="http://www.w3.org/2000/svg" xmlns:xlink="http://www.w3.org/1999/xlink" x="0px" y="0px"
	 width="15.557px" height="15.557px" viewBox="0 0 15.557 15.557" enable-background="new 0 0 15.557 15.557" xml:space="preserve">
<path d="M0.707,13.435L13.435,0.707c0.391-0.391,1.023-0.391,1.414,0l0,0c0.391,0.391,0.391,1.023,0,1.414L2.121,14.849
	c-0.39,0.391-1.023,0.391-1.414,0l0,0C0.316,14.459,0.316,13.825,0.707,13.435z"/>
<path d="M2.121,0.707l12.729,12.729c0.391,0.391,0.391,1.023,0,1.414l0,0c-0.391,0.391-1.023,0.391-1.414,0L0.707,2.121
	c-0.391-0.39-0.391-1.023,0-1.414l0,0C1.097,0.316,1.731,0.316,2.121,0.707z"/>
</svg>
